<?xml version="1.0" encoding="UTF-8"?>
<svg xmlns="http://www.w3.org/2000/svg" width="1200" height="720" viewBox="0 0 1200 720">
  <rect width="100%" height="100%" fill="#0b1120"/>
  <text x="92" y="42" fill="#f8fafc" font-size="27" font-weight="800">ASPR — cumulative broker net lots</text>
  <text x="92" y="70" fill="#94a3b8" font-size="17">2026-07-01 → 2026-09-18 · buy moves up, sell moves down · zero anchored</text>
  <line x1="92" y1="608.1481481481482" x2="1114" y2="608.1481481481482" stroke="#253044" stroke-width="1" /><text x="78" y="613.1481481481482" text-anchor="end" fill="#94a3b8" font-size="16">−397.6K</text><line x1="92" y1="484.0740740740741" x2="1114" y2="484.0740740740741" stroke="#253044" stroke-width="1" /><text x="78" y="489.0740740740741" text-anchor="end" fill="#94a3b8" font-size="16">−198.8K</text><line x1="92" y1="360" x2="1114" y2="360" stroke="#64748b" stroke-width="2" stroke-dasharray="8 6"/><text x="78" y="365" text-anchor="end" fill="#94a3b8" font-size="16">0</text><line x1="92" y1="235.92592592592592" x2="1114" y2="235.92592592592592" stroke="#253044" stroke-width="1" /><text x="78" y="240.92592592592592" text-anchor="end" fill="#94a3b8" font-size="16">198.8K</text><line x1="92" y1="111.85185185185188" x2="1114" y2="111.85185185185188" stroke="#253044" stroke-width="1" /><text x="78" y="116.85185185185188" text-anchor="end" fill="#94a3b8" font-size="16">397.6K</text>
  <g opacity="0.34"><line x1="92" y1="404.0065681444992" x2="92" y2="503.02134646962236" stroke="#34d399" stroke-width="2"/><rect x="86.98125" y="437.0114942528736" width="10.037500000000001" height="22.003284072249585" fill="#34d399"/></g><g opacity="0.34"><line x1="110.58181818181818" y1="382.0032840722497" x2="110.58181818181818" y2="437.0114942528736" stroke="#fb7185" stroke-width="2"/><rect x="105.56306818181818" y="404.0065681444992" width="10.037500000000001" height="11.00164203612485" fill="#fb7185"/></g><g opacity="0.34"><line x1="129.16363636363636" y1="249.98357963875216" x2="129.16363636363636" y2="415.0082101806241" stroke="#34d399" stroke-width="2"/><rect x="124.14488636363636" y="360.00000000000006" width="10.037500000000001" height="55.00821018062402" fill="#34d399"/></g><g opacity="0.34"><line x1="147.74545454545455" y1="293.99014778325136" x2="147.74545454545455" y2="393.00492610837443" stroke="#34d399" stroke-width="2"/><rect x="142.72670454545454" y="326.9950738916257" width="10.037500000000001" height="11.00164203612485" fill="#34d399"/></g><g opacity="0.34"><line x1="166.3272727272727" y1="238.98193760262737" x2="166.3272727272727" y2="348.99835796387526" stroke="#fb7185" stroke-width="2"/><rect x="161.3085227272727" y="304.9917898193761" width="10.037500000000001" height="11.00164203612485" fill="#fb7185"/></g><g opacity="0.34"><line x1="184.9090909090909" y1="326.9950738916257" x2="184.9090909090909" y2="448.01313628899845" stroke="#fb7185" stroke-width="2"/><rect x="179.8903409090909" y="326.9950738916257" width="10.037500000000001" height="121.01806239737277" fill="#fb7185"/></g><g opacity="0.34"><line x1="203.4909090909091" y1="271.9868637110018" x2="203.4909090909091" y2="437.0114942528736" stroke="#34d399" stroke-width="2"/><rect x="198.4721590909091" y="371.00164203612485" width="10.037500000000001" height="66.00985221674875" fill="#34d399"/></g><g opacity="0.34"><line x1="222.07272727272726" y1="348.99835796387526" x2="222.07272727272726" y2="415.0082101806241" stroke="#fb7185" stroke-width="2"/><rect x="217.05397727272725" y="371.00164203612485" width="10.037500000000001" height="11.00164203612485" fill="#fb7185"/></g><g opacity="0.34"><line x1="240.65454545454546" y1="382.0032840722497" x2="240.65454545454546" y2="459.0147783251232" stroke="#fb7185" stroke-width="2"/><rect x="235.63579545454544" y="393.00492610837443" width="10.037500000000001" height="11.001642036124792" fill="#fb7185"/></g><g opacity="0.34"><line x1="259.23636363636365" y1="337.99671592775053" x2="259.23636363636365" y2="426.0098522167488" stroke="#34d399" stroke-width="2"/><rect x="254.21761363636364" y="348.99835796387526" width="10.037500000000001" height="55.00821018062396" fill="#34d399"/></g><g opacity="0.34"><line x1="277.8181818181818" y1="161.97044334975385" x2="277.8181818181818" y2="404.0065681444992" stroke="#34d399" stroke-width="2"/><rect x="272.7994318181818" y="194.9753694581282" width="10.037500000000001" height="154.02298850574707" fill="#34d399"/></g><g opacity="0.34"><line x1="296.4" y1="183.9737274220034" x2="296.4" y2="282.9885057471265" stroke="#fb7185" stroke-width="2"/><rect x="291.38124999999997" y="194.9753694581282" width="10.037500000000001" height="77.01149425287358" fill="#fb7185"/></g><g opacity="0.34"><line x1="314.9818181818182" y1="238.98193760262737" x2="314.9818181818182" y2="360.00000000000006" stroke="#fb7185" stroke-width="2"/><rect x="309.9630681818182" y="260.9852216748769" width="10.037500000000001" height="66.00985221674875" fill="#fb7185"/></g><g opacity="0.34"><line x1="333.56363636363636" y1="238.98193760262737" x2="333.56363636363636" y2="337.99671592775053" stroke="#34d399" stroke-width="2"/><rect x="328.54488636363635" y="293.99014778325136" width="10.037500000000001" height="33.00492610837432" fill="#34d399"/></g><g opacity="0.34"><line x1="352.1454545454545" y1="249.98357963875216" x2="352.1454545454545" y2="315.99343185550094" stroke="#34d399" stroke-width="2"/><rect x="347.1267045454545" y="271.9868637110018" width="10.037500000000001" height="22.003284072249585" fill="#34d399"/></g><g opacity="0.34"><line x1="370.7272727272727" y1="216.97865353037778" x2="370.7272727272727" y2="304.9917898193761" stroke="#fb7185" stroke-width="2"/><rect x="365.7085227272727" y="249.98357963875216" width="10.037500000000001" height="33.00492610837435" fill="#fb7185"/></g><g opacity="0.34"><line x1="389.3090909090909" y1="227.98029556650258" x2="389.3090909090909" y2="315.99343185550094" stroke="#fb7185" stroke-width="2"/><rect x="384.2903409090909" y="271.9868637110018" width="10.037500000000001" height="33.00492610837432" fill="#fb7185"/></g><g opacity="0.34"><line x1="407.8909090909091" y1="128.96551724137944" x2="407.8909090909091" y2="315.99343185550094" stroke="#fb7185" stroke-width="2"/><rect x="402.87215909090907" y="271.9868637110018" width="10.037500000000001" height="44.00656814449917" fill="#fb7185"/></g><g opacity="0.34"><line x1="426.4727272727273" y1="293.99014778325136" x2="426.4727272727273" y2="404.0065681444992" stroke="#fb7185" stroke-width="2"/><rect x="421.4539772727273" y="293.99014778325136" width="10.037500000000001" height="88.01313628899834" fill="#fb7185"/></g><g opacity="0.34"><line x1="445.05454545454546" y1="216.97865353037778" x2="445.05454545454546" y2="382.0032840722497" stroke="#34d399" stroke-width="2"/><rect x="440.03579545454545" y="337.99671592775053" width="10.037500000000001" height="22.003284072249528" fill="#34d399"/></g><g opacity="0.34"><line x1="463.6363636363636" y1="304.9917898193761" x2="463.6363636363636" y2="382.0032840722497" stroke="#fb7185" stroke-width="2"/><rect x="458.6176136363636" y="326.9950738916257" width="10.037500000000001" height="44.00656814449917" fill="#fb7185"/></g><g opacity="0.34"><line x1="482.21818181818185" y1="293.99014778325136" x2="482.21818181818185" y2="371.00164203612485" stroke="#fb7185" stroke-width="2"/><rect x="477.19943181818184" y="315.99343185550094" width="10.037500000000001" height="33.00492610837432" fill="#fb7185"/></g><g opacity="0.34"><line x1="500.8" y1="315.99343185550094" x2="500.8" y2="371.00164203612485" stroke="#34d399" stroke-width="2"/><rect x="495.78125" y="348.99835796387526" width="10.037500000000001" height="2" fill="#34d399"/></g><g opacity="0.34"><line x1="519.3818181818182" y1="304.9917898193761" x2="519.3818181818182" y2="591.0344827586207" stroke="#34d399" stroke-width="2"/><rect x="514.3630681818182" y="371.00164203612485" width="10.037500000000001" height="187.02791461412153" fill="#34d399"/></g><g opacity="0.34"><line x1="537.9636363636364" y1="282.9885057471265" x2="537.9636363636364" y2="393.00492610837443" stroke="#34d399" stroke-width="2"/><rect x="532.9448863636364" y="315.99343185550094" width="10.037500000000001" height="77.01149425287349" fill="#34d399"/></g><g opacity="0.34"><line x1="556.5454545454545" y1="304.9917898193761" x2="556.5454545454545" y2="348.99835796387526" stroke="#fb7185" stroke-width="2"/><rect x="551.5267045454545" y="315.99343185550094" width="10.037500000000001" height="22.003284072249585" fill="#fb7185"/></g><g opacity="0.34"><line x1="575.1272727272727" y1="304.9917898193761" x2="575.1272727272727" y2="360.00000000000006" stroke="#34d399" stroke-width="2"/><rect x="570.1085227272728" y="326.9950738916257" width="10.037500000000001" height="11.00164203612485" fill="#34d399"/></g><g opacity="0.34"><line x1="593.709090909091" y1="315.99343185550094" x2="593.709090909091" y2="348.99835796387526" stroke="#fb7185" stroke-width="2"/><rect x="588.690340909091" y="326.9950738916257" width="10.037500000000001" height="22.003284072249585" fill="#fb7185"/></g><g opacity="0.34"><line x1="612.290909090909" y1="227.98029556650258" x2="612.290909090909" y2="348.99835796387526" stroke="#34d399" stroke-width="2"/><rect x="607.2721590909091" y="260.9852216748769" width="10.037500000000001" height="77.0114942528736" fill="#34d399"/></g><g opacity="0.34"><line x1="630.8727272727273" y1="194.9753694581282" x2="630.8727272727273" y2="315.99343185550094" stroke="#fb7185" stroke-width="2"/><rect x="625.8539772727273" y="238.98193760262737" width="10.037500000000001" height="77.01149425287358" fill="#fb7185"/></g><g opacity="0.34"><line x1="649.4545454545454" y1="271.9868637110018" x2="649.4545454545454" y2="348.99835796387526" stroke="#fb7185" stroke-width="2"/><rect x="644.4357954545454" y="304.9917898193761" width="10.037500000000001" height="11.00164203612485" fill="#fb7185"/></g><g opacity="0.34"><line x1="668.0363636363636" y1="139.96715927750424" x2="668.0363636363636" y2="337.99671592775053" stroke="#34d399" stroke-width="2"/><rect x="663.0176136363636" y="205.977011494253" width="10.037500000000001" height="88.01313628899837" fill="#34d399"/></g><g opacity="0.34"><line x1="686.6181818181818" y1="183.9737274220034" x2="686.6181818181818" y2="271.9868637110018" stroke="#fb7185" stroke-width="2"/><rect x="681.5994318181819" y="183.9737274220034" width="10.037500000000001" height="77.01149425287352" fill="#fb7185"/></g><g opacity="0.34"><line x1="705.1999999999999" y1="216.97865353037778" x2="705.1999999999999" y2="282.9885057471265" stroke="#34d399" stroke-width="2"/><rect x="700.18125" y="227.98029556650258" width="10.037500000000001" height="22.003284072249585" fill="#34d399"/></g><g opacity="0.34"><line x1="723.7818181818182" y1="183.9737274220034" x2="723.7818181818182" y2="260.9852216748769" stroke="#34d399" stroke-width="2"/><rect x="718.7630681818182" y="216.97865353037778" width="10.037500000000001" height="11.001642036124792" fill="#34d399"/></g><g opacity="0.34"><line x1="742.3636363636364" y1="183.9737274220034" x2="742.3636363636364" y2="238.98193760262737" stroke="#34d399" stroke-width="2"/><rect x="737.3448863636364" y="216.97865353037778" width="10.037500000000001" height="2" fill="#34d399"/></g><g opacity="0.34"><line x1="760.9454545454546" y1="150.96880131362903" x2="760.9454545454546" y2="315.99343185550094" stroke="#fb7185" stroke-width="2"/><rect x="755.9267045454546" y="216.97865353037778" width="10.037500000000001" height="22.003284072249585" fill="#fb7185"/></g><g opacity="0.34"><line x1="779.5272727272727" y1="227.98029556650258" x2="779.5272727272727" y2="326.9950738916257" stroke="#fb7185" stroke-width="2"/><rect x="774.5085227272727" y="238.98193760262737" width="10.037500000000001" height="88.01313628899831" fill="#fb7185"/></g><g opacity="0.34"><line x1="798.1090909090909" y1="271.9868637110018" x2="798.1090909090909" y2="404.0065681444992" stroke="#fb7185" stroke-width="2"/><rect x="793.090340909091" y="326.9950738916257" width="10.037500000000001" height="44.00656814449917" fill="#fb7185"/></g><g opacity="0.34"><line x1="816.6909090909091" y1="216.97865353037778" x2="816.6909090909091" y2="437.0114942528736" stroke="#34d399" stroke-width="2"/><rect x="811.6721590909092" y="227.98029556650258" width="10.037500000000001" height="154.02298850574712" fill="#34d399"/></g><g opacity="0.34"><line x1="835.2727272727273" y1="205.977011494253" x2="835.2727272727273" y2="271.9868637110018" stroke="#fb7185" stroke-width="2"/><rect x="830.2539772727273" y="216.97865353037778" width="10.037500000000001" height="44.00656814449914" fill="#fb7185"/></g><g opacity="0.34"><line x1="853.8545454545455" y1="260.9852216748769" x2="853.8545454545455" y2="304.9917898193761" stroke="#fb7185" stroke-width="2"/><rect x="848.8357954545455" y="260.9852216748769" width="10.037500000000001" height="44.00656814449917" fill="#fb7185"/></g><g opacity="0.34"><line x1="872.4363636363637" y1="249.98357963875216" x2="872.4363636363637" y2="304.9917898193761" stroke="#fb7185" stroke-width="2"/><rect x="867.4176136363637" y="260.9852216748769" width="10.037500000000001" height="33.004926108374434" fill="#fb7185"/></g><g opacity="0.34"><line x1="891.0181818181818" y1="238.98193760262737" x2="891.0181818181818" y2="304.9917898193761" stroke="#fb7185" stroke-width="2"/><rect x="885.9994318181818" y="282.9885057471265" width="10.037500000000001" height="11.00164203612485" fill="#fb7185"/></g><g opacity="0.34"><line x1="909.6" y1="293.99014778325136" x2="909.6" y2="348.99835796387526" stroke="#fb7185" stroke-width="2"/><rect x="904.5812500000001" y="293.99014778325136" width="10.037500000000001" height="22.003284072249585" fill="#fb7185"/></g><g opacity="0.34"><line x1="928.1818181818182" y1="304.9917898193761" x2="928.1818181818182" y2="360.00000000000006" stroke="#fb7185" stroke-width="2"/><rect x="923.1630681818183" y="304.9917898193761" width="10.037500000000001" height="55.00821018062396" fill="#fb7185"/></g><g opacity="0.34"><line x1="946.7636363636364" y1="348.99835796387526" x2="946.7636363636364" y2="415.0082101806241" stroke="#fb7185" stroke-width="2"/><rect x="941.7448863636364" y="360.00000000000006" width="10.037500000000001" height="11.001642036124792" fill="#fb7185"/></g><g opacity="0.34"><line x1="965.3454545454545" y1="348.99835796387526" x2="965.3454545454545" y2="393.00492610837443" stroke="#34d399" stroke-width="2"/><rect x="960.3267045454545" y="371.00164203612485" width="10.037500000000001" height="11.00164203612485" fill="#34d399"/></g><g opacity="0.34"><line x1="983.9272727272727" y1="348.99835796387526" x2="983.9272727272727" y2="393.00492610837443" stroke="#34d399" stroke-width="2"/><rect x="978.9085227272727" y="371.00164203612485" width="10.037500000000001" height="2" fill="#34d399"/></g><g opacity="0.34"><line x1="1002.5090909090909" y1="348.99835796387526" x2="1002.5090909090909" y2="415.0082101806241" stroke="#fb7185" stroke-width="2"/><rect x="997.490340909091" y="360.00000000000006" width="10.037500000000001" height="44.00656814449917" fill="#fb7185"/></g><g opacity="0.34"><line x1="1021.090909090909" y1="404.0065681444992" x2="1021.090909090909" y2="459.0147783251232" stroke="#fb7185" stroke-width="2"/><rect x="1016.072159090909" y="415.0082101806241" width="10.037500000000001" height="22.003284072249528" fill="#fb7185"/></g><g opacity="0.34"><line x1="1039.6727272727271" y1="415.0082101806241" x2="1039.6727272727271" y2="525.0246305418719" stroke="#fb7185" stroke-width="2"/><rect x="1034.6539772727272" y="426.0098522167488" width="10.037500000000001" height="33.00492610837438" fill="#fb7185"/></g><g opacity="0.34"><line x1="1058.2545454545455" y1="293.99014778325136" x2="1058.2545454545455" y2="481.01806239737283" stroke="#34d399" stroke-width="2"/><rect x="1053.2357954545455" y="293.99014778325136" width="10.037500000000001" height="165.02463054187183" fill="#34d399"/></g><g opacity="0.34"><line x1="1076.8363636363638" y1="293.99014778325136" x2="1076.8363636363638" y2="382.0032840722497" stroke="#fb7185" stroke-width="2"/><rect x="1071.8176136363638" y="293.99014778325136" width="10.037500000000001" height="44.00656814449917" fill="#fb7185"/></g><g opacity="0.34"><line x1="1095.418181818182" y1="337.99671592775053" x2="1095.418181818182" y2="437.0114942528736" stroke="#fb7185" stroke-width="2"/><rect x="1090.399431818182" y="371.00164203612485" width="10.037500000000001" height="33.00492610837438" fill="#fb7185"/></g><g opacity="0.34"><line x1="1114" y1="393.00492610837443" x2="1114" y2="448.01313628899845" stroke="#fb7185" stroke-width="2"/><rect x="1108.98125" y="393.00492610837443" width="10.037500000000001" height="55.00821018062402" fill="#fb7185"/></g>
  <path d="M92.00,358.26 L110.58,360.26 L129.16,359.29 L147.75,357.60 L166.33,354.39 L184.91,355.48 L203.49,361.82 L222.07,366.75 L240.65,367.26 L259.24,366.77 L277.82,369.17 L296.40,369.37 L314.98,374.29 L333.56,373.13 L352.15,387.19 L370.73,383.29 L389.31,384.63 L407.89,374.86 L426.47,357.26 L445.05,312.19 L463.64,242.44 L482.22,239.88 L500.80,225.18 L519.38,249.58 L537.96,222.99 L556.55,213.38 L575.13,194.41 L593.71,174.76 L612.29,116.38 L630.87,113.51 L649.45,113.39 L668.04,124.52 L686.62,127.62 L705.20,113.87 L723.78,111.87 L742.36,111.85 L760.95,171.56 L779.53,156.23 L798.11,140.06 L816.69,151.01 L835.27,152.92 L853.85,160.00 L872.44,166.28 L891.02,129.41 L909.60,151.03 L928.18,143.34 L946.76,140.82 L965.35,145.96 L983.93,148.27 L1002.51,145.74 L1021.09,146.69 L1039.67,144.07 L1058.25,143.68 L1076.84,145.20 L1095.42,142.81 L1114.00,138.51" fill="none" stroke="#10b981" stroke-width="4" stroke-linejoin="round" stroke-linecap="round"/><path d="M92.00,361.41 L110.58,361.19 L129.16,360.88 L147.75,360.65 L166.33,360.04 L184.91,359.87 L203.49,360.97 L222.07,360.96 L259.24,361.33 L277.82,361.28 L296.40,360.74 L314.98,360.40 L333.56,360.37 L352.15,360.28 L370.73,361.06 L389.31,358.76 L407.89,362.36 L426.47,362.14 L445.05,362.57 L463.64,359.04 L482.22,358.76 L500.80,359.01 L519.38,358.32 L537.96,359.04 L556.55,358.44 L575.13,358.09 L593.71,357.75 L612.29,362.26 L630.87,360.59 L649.45,358.65 L668.04,339.66 L686.62,333.75 L705.20,326.26 L723.78,325.02 L760.95,315.58 L779.53,309.43 L798.11,305.18 L816.69,305.72 L835.27,304.40 L853.85,303.76 L872.44,301.73 L891.02,300.80 L909.60,298.72 L928.18,298.72 L946.76,298.84 L965.35,298.80 L983.93,299.08 L1002.51,297.78 L1021.09,297.73 L1039.67,297.67 L1058.25,296.50 L1076.84,296.65 L1095.42,295.40 L1114.00,295.47" fill="none" stroke="#8b5cf6" stroke-width="4" stroke-linejoin="round" stroke-linecap="round"/><path d="M92.00,349.34 L110.58,360.90 L129.16,366.35 L147.75,354.14 L166.33,362.58 L184.91,361.92 L203.49,369.51 L222.07,367.60 L240.65,357.07 L259.24,359.71 L277.82,353.92 L296.40,368.40 L314.98,362.71 L333.56,369.82 L352.15,343.34 L370.73,347.96 L389.31,342.33 L407.89,371.47 L426.47,367.64 L445.05,352.46 L463.64,371.42 L482.22,369.77 L500.80,366.98 L519.38,359.27 L537.96,362.58 L556.55,361.83 L575.13,361.25 L593.71,364.03 L612.29,357.38 L630.87,370.60 L649.45,360.38 L668.04,299.72 L686.62,313.00 L705.20,307.69 L723.78,304.12 L742.36,288.07 L760.95,298.92 L779.53,320.80 L798.11,329.17 L816.69,292.36 L835.27,304.84 L853.85,299.03 L872.44,310.98 L891.02,314.34 L909.60,305.66 L928.18,316.45 L946.76,345.44 L965.35,351.37 L983.93,352.31 L1002.51,352.91 L1021.09,352.77 L1039.67,359.10 L1058.25,340.66 L1076.84,370.28 L1095.42,365.47 L1114.00,367.29" fill="none" stroke="#ec4899" stroke-width="4" stroke-linejoin="round" stroke-linecap="round"/><path d="M92.00,359.84 L110.58,360.80 L129.16,360.55 L147.75,360.49 L166.33,360.80 L184.91,356.89 L203.49,359.54 L222.07,360.80 L240.65,360.74 L259.24,360.77 L277.82,360.61 L296.40,360.53 L314.98,360.06 L333.56,360.80 L352.15,358.55 L370.73,360.10 L389.31,355.18 L407.89,360.66 L426.47,360.18 L445.05,360.80 L463.64,360.80 L482.22,360.25 L500.80,360.46 L519.38,358.79 L537.96,357.36 L556.55,356.19 L575.13,357.53 L593.71,355.40 L612.29,354.62 L630.87,359.51 L649.45,359.31 L668.04,359.51 L686.62,281.76 L705.20,304.21 L723.78,304.29 L742.36,292.36 L760.95,308.20 L779.53,308.20 L798.11,307.67 L816.69,284.28 L835.27,283.74 L853.85,285.07 L872.44,238.57 L891.02,239.60 L909.60,239.11 L946.76,247.11 L965.35,253.43 L983.93,256.93 L1002.51,257.26 L1021.09,257.24 L1039.67,255.95 L1058.25,256.02 L1076.84,257.06 L1095.42,351.66 L1114.00,354.67" fill="none" stroke="#06b6d4" stroke-width="4" stroke-linejoin="round" stroke-linecap="round"/><path d="M92.00,346.38 L110.58,341.90 L129.16,352.19 L147.75,349.37 L166.33,349.53 L184.91,343.51 L203.49,345.30 L222.07,339.22 L240.65,343.07 L259.24,336.71 L277.82,332.19 L296.40,381.76 L314.98,383.68 L333.56,382.84 L352.15,358.70 L370.73,372.22 L389.31,335.91 L407.89,386.83 L426.47,393.08 L445.05,363.46 L463.64,398.04 L482.22,395.73 L500.80,385.12 L519.38,353.40 L537.96,340.98 L556.55,334.83 L575.13,327.22 L593.71,324.94 L612.29,309.85 L630.87,301.09 L649.45,305.16 L668.04,315.85 L686.62,343.38 L705.20,316.84 L723.78,312.20 L742.36,303.95 L760.95,303.59 L779.53,319.50 L798.11,329.08 L816.69,291.46 L835.27,288.88 L853.85,287.77 L872.44,296.61 L891.02,320.95 L909.60,309.05 L928.18,354.76 L946.76,348.54 L965.35,348.62 L983.93,353.55 L1002.51,354.76 L1021.09,354.16 L1039.67,360.89 L1058.25,408.37 L1076.84,407.23 L1095.42,394.73 L1114.00,398.78" fill="none" stroke="#f59e0b" stroke-width="4" stroke-linejoin="round" stroke-linecap="round"/>
  <text x="92" y="662" text-anchor="middle" fill="#94a3b8" font-size="16">2026-07-01</text><text x="593.709090909091" y="662" text-anchor="middle" fill="#94a3b8" font-size="16">2026-08-07</text><text x="1114" y="662" text-anchor="middle" fill="#94a3b8" font-size="16">2026-09-18</text>
  <text x="1128" y="633" fill="#94a3b8" font-size="16">123</text><text x="1128" y="365.00000000000006" fill="#94a3b8" font-size="16">147</text><text x="1128" y="97" fill="#94a3b8" font-size="16">171</text>
  <text x="32" y="74" fill="#94a3b8" font-size="15">Net lots</text>
  <text x="1126" y="74" fill="#94a3b8" font-size="15">Price</text>
  <g><circle cx="92" cy="686" r="7" fill="#10b981"/><text x="106" y="692" fill="#e2e8f0" font-size="18" font-weight="700">YP</text></g><g><circle cx="282" cy="686" r="7" fill="#8b5cf6"/><text x="296" y="692" fill="#e2e8f0" font-size="18" font-weight="700">MG</text></g><g><circle cx="472" cy="686" r="7" fill="#ec4899"/><text x="486" y="692" fill="#e2e8f0" font-size="18" font-weight="700">AK</text></g><g><circle cx="662" cy="686" r="7" fill="#06b6d4"/><text x="676" y="692" fill="#e2e8f0" font-size="18" font-weight="700">BK</text></g><g><circle cx="852" cy="686" r="7" fill="#f59e0b"/><text x="866" y="692" fill="#e2e8f0" font-size="18" font-weight="700">CC</text></g>
  
</svg>