<?xml version="1.0" encoding="UTF-8"?>
<svg xmlns="http://www.w3.org/2000/svg" width="1200" height="720" viewBox="0 0 1200 720">
  <rect width="100%" height="100%" fill="#0b1120"/>
  <text x="92" y="42" fill="#f8fafc" font-size="27" font-weight="800">COCO — cumulative broker net lots</text>
  <text x="92" y="70" fill="#94a3b8" font-size="17">2026-08-04 → 2026-09-28 · buy moves up, sell moves down · zero anchored</text>
  <line x1="92" y1="608.1481481481482" x2="1114" y2="608.1481481481482" stroke="#253044" stroke-width="1" /><text x="78" y="613.1481481481482" text-anchor="end" fill="#94a3b8" font-size="16">−4.3M</text><line x1="92" y1="484.0740740740741" x2="1114" y2="484.0740740740741" stroke="#253044" stroke-width="1" /><text x="78" y="489.0740740740741" text-anchor="end" fill="#94a3b8" font-size="16">−2.1M</text><line x1="92" y1="360" x2="1114" y2="360" stroke="#64748b" stroke-width="2" stroke-dasharray="8 6"/><text x="78" y="365" text-anchor="end" fill="#94a3b8" font-size="16">0</text><line x1="92" y1="235.92592592592592" x2="1114" y2="235.92592592592592" stroke="#253044" stroke-width="1" /><text x="78" y="240.92592592592592" text-anchor="end" fill="#94a3b8" font-size="16">2.1M</text><line x1="92" y1="111.85185185185188" x2="1114" y2="111.85185185185188" stroke="#253044" stroke-width="1" /><text x="78" y="116.85185185185188" text-anchor="end" fill="#94a3b8" font-size="16">4.3M</text>
  <g opacity="0.34"><line x1="92" y1="490.2194357366771" x2="92" y2="549.0282131661442" stroke="#34d399" stroke-width="2"/><rect x="86" y="515.4231974921629" width="12" height="16.802507836990685" fill="#34d399"/></g><g opacity="0.34"><line x1="119.62162162162163" y1="456.6144200626959" x2="119.62162162162163" y2="507.02194357366767" stroke="#34d399" stroke-width="2"/><rect x="113.62162162162163" y="465.0156739811912" width="12" height="42.006269592476485" fill="#34d399"/></g><g opacity="0.34"><line x1="147.24324324324326" y1="448.2131661442006" x2="147.24324324324326" y2="507.02194357366767" stroke="#fb7185" stroke-width="2"/><rect x="141.24324324324326" y="456.6144200626959" width="12" height="33.6050156739812" fill="#fb7185"/></g><g opacity="0.34"><line x1="174.86486486486487" y1="481.81818181818176" x2="174.86486486486487" y2="498.6206896551724" stroke="#34d399" stroke-width="2"/><rect x="168.86486486486487" y="490.2194357366771" width="12" height="8.401253918495286" fill="#34d399"/></g><g opacity="0.34"><line x1="202.4864864864865" y1="490.2194357366771" x2="202.4864864864865" y2="523.8244514106583" stroke="#fb7185" stroke-width="2"/><rect x="196.4864864864865" y="490.2194357366771" width="12" height="33.6050156739812" fill="#fb7185"/></g><g opacity="0.34"><line x1="230.10810810810813" y1="515.4231974921629" x2="230.10810810810813" y2="557.4294670846396" stroke="#fb7185" stroke-width="2"/><rect x="224.10810810810813" y="515.4231974921629" width="12" height="33.605015673981256" fill="#fb7185"/></g><g opacity="0.34"><line x1="257.72972972972974" y1="532.2257053291536" x2="257.72972972972974" y2="574.2319749216301" stroke="#34d399" stroke-width="2"/><rect x="251.72972972972974" y="540.6269592476489" width="12" height="8.401253918495286" fill="#34d399"/></g><g opacity="0.34"><line x1="285.35135135135135" y1="523.8244514106583" x2="285.35135135135135" y2="565.8307210031348" stroke="#fb7185" stroke-width="2"/><rect x="279.35135135135135" y="532.2257053291536" width="12" height="25.20376175548597" fill="#fb7185"/></g><g opacity="0.34"><line x1="312.972972972973" y1="532.2257053291536" x2="312.972972972973" y2="574.2319749216301" stroke="#34d399" stroke-width="2"/><rect x="306.972972972973" y="549.0282131661442" width="12" height="8.4012539184954" fill="#34d399"/></g><g opacity="0.34"><line x1="340.5945945945946" y1="523.8244514106583" x2="340.5945945945946" y2="557.4294670846396" stroke="#fb7185" stroke-width="2"/><rect x="334.5945945945946" y="540.6269592476489" width="12" height="16.802507836990685" fill="#fb7185"/></g><g opacity="0.34"><line x1="368.21621621621625" y1="557.4294670846396" x2="368.21621621621625" y2="591.0344827586207" stroke="#fb7185" stroke-width="2"/><rect x="362.21621621621625" y="557.4294670846396" width="12" height="16.80250783699057" fill="#fb7185"/></g><g opacity="0.34"><line x1="395.83783783783787" y1="507.02194357366767" x2="395.83783783783787" y2="574.2319749216301" stroke="#34d399" stroke-width="2"/><rect x="389.83783783783787" y="540.6269592476489" width="12" height="33.605015673981256" fill="#34d399"/></g><g opacity="0.34"><line x1="423.4594594594595" y1="498.6206896551724" x2="423.4594594594595" y2="540.6269592476489" stroke="#fb7185" stroke-width="2"/><rect x="417.4594594594595" y="523.8244514106583" width="12" height="8.401253918495286" fill="#fb7185"/></g><g opacity="0.34"><line x1="451.0810810810811" y1="515.4231974921629" x2="451.0810810810811" y2="549.0282131661442" stroke="#34d399" stroke-width="2"/><rect x="445.0810810810811" y="532.2257053291536" width="12" height="2" fill="#34d399"/></g><g opacity="0.34"><line x1="478.7027027027027" y1="532.2257053291536" x2="478.7027027027027" y2="574.2319749216301" stroke="#fb7185" stroke-width="2"/><rect x="472.7027027027027" y="532.2257053291536" width="12" height="42.00626959247654" fill="#fb7185"/></g><g opacity="0.34"><line x1="506.3243243243243" y1="549.0282131661442" x2="506.3243243243243" y2="591.0344827586207" stroke="#34d399" stroke-width="2"/><rect x="500.3243243243243" y="557.4294670846396" width="12" height="25.203761755485857" fill="#34d399"/></g><g opacity="0.34"><line x1="533.945945945946" y1="540.6269592476489" x2="533.945945945946" y2="565.8307210031348" stroke="#fb7185" stroke-width="2"/><rect x="527.945945945946" y="549.0282131661442" width="12" height="8.4012539184954" fill="#fb7185"/></g><g opacity="0.34"><line x1="561.5675675675676" y1="507.02194357366767" x2="561.5675675675676" y2="574.2319749216301" stroke="#34d399" stroke-width="2"/><rect x="555.5675675675676" y="507.02194357366767" width="12" height="50.407523510971885" fill="#34d399"/></g><g opacity="0.34"><line x1="589.1891891891892" y1="288.58934169278996" x2="589.1891891891892" y2="507.02194357366767" stroke="#34d399" stroke-width="2"/><rect x="583.1891891891892" y="313.7931034482759" width="12" height="176.42633228840123" fill="#34d399"/></g><g opacity="0.34"><line x1="616.8108108108108" y1="330.59561128526644" x2="616.8108108108108" y2="423.00940438871476" stroke="#fb7185" stroke-width="2"/><rect x="610.8108108108108" y="330.59561128526644" width="12" height="58.80877742946711" fill="#fb7185"/></g><g opacity="0.34"><line x1="644.4324324324325" y1="271.7868338557994" x2="644.4324324324325" y2="381.00313479623827" stroke="#34d399" stroke-width="2"/><rect x="638.4324324324325" y="305.3918495297806" width="12" height="75.61128526645768" fill="#34d399"/></g><g opacity="0.34"><line x1="672.0540540540541" y1="229.78056426332293" x2="672.0540540540541" y2="305.3918495297806" stroke="#fb7185" stroke-width="2"/><rect x="666.0540540540541" y="271.7868338557994" width="12" height="16.80250783699057" fill="#fb7185"/></g><g opacity="0.34"><line x1="699.6756756756757" y1="254.9843260188088" x2="699.6756756756757" y2="330.59561128526644" stroke="#fb7185" stroke-width="2"/><rect x="693.6756756756757" y="271.7868338557994" width="12" height="16.80250783699057" fill="#fb7185"/></g><g opacity="0.34"><line x1="727.2972972972973" y1="187.77429467084642" x2="727.2972972972973" y2="280.1880877742947" stroke="#34d399" stroke-width="2"/><rect x="721.2972972972973" y="187.77429467084642" width="12" height="84.01253918495297" fill="#34d399"/></g><g opacity="0.34"><line x1="754.918918918919" y1="162.57053291536056" x2="754.918918918919" y2="229.78056426332293" stroke="#fb7185" stroke-width="2"/><rect x="748.918918918919" y="170.97178683385584" width="12" height="16.80250783699057" fill="#fb7185"/></g><g opacity="0.34"><line x1="782.5405405405405" y1="154.16927899686524" x2="782.5405405405405" y2="246.5830721003135" stroke="#fb7185" stroke-width="2"/><rect x="776.5405405405405" y="170.97178683385584" width="12" height="75.61128526645766" fill="#fb7185"/></g><g opacity="0.34"><line x1="810.1621621621622" y1="263.3855799373041" x2="810.1621621621622" y2="347.39811912225707" stroke="#fb7185" stroke-width="2"/><rect x="804.1621621621622" y="288.58934169278996" width="12" height="8.401253918495286" fill="#fb7185"/></g><g opacity="0.34"><line x1="837.7837837837837" y1="221.37931034482762" x2="837.7837837837837" y2="322.19435736677116" stroke="#34d399" stroke-width="2"/><rect x="831.7837837837837" y="221.37931034482762" width="12" height="75.61128526645763" fill="#34d399"/></g><g opacity="0.34"><line x1="865.4054054054054" y1="128.96551724137936" x2="865.4054054054054" y2="246.5830721003135" stroke="#fb7185" stroke-width="2"/><rect x="859.4054054054054" y="204.57680250783702" width="12" height="25.203761755485914" fill="#fb7185"/></g><g opacity="0.34"><line x1="893.027027027027" y1="212.97805642633233" x2="893.027027027027" y2="288.58934169278996" stroke="#fb7185" stroke-width="2"/><rect x="887.027027027027" y="229.78056426332293" width="12" height="50.40752351097174" fill="#fb7185"/></g><g opacity="0.34"><line x1="920.6486486486486" y1="229.78056426332293" x2="920.6486486486486" y2="296.99059561128524" stroke="#34d399" stroke-width="2"/><rect x="914.6486486486486" y="246.5830721003135" width="12" height="33.60501567398117" fill="#34d399"/></g><g opacity="0.34"><line x1="948.2702702702703" y1="238.1818181818182" x2="948.2702702702703" y2="280.1880877742947" stroke="#fb7185" stroke-width="2"/><rect x="942.2702702702703" y="246.5830721003135" width="12" height="33.60501567398117" fill="#fb7185"/></g><g opacity="0.34"><line x1="975.891891891892" y1="254.9843260188088" x2="975.891891891892" y2="313.7931034482759" stroke="#fb7185" stroke-width="2"/><rect x="969.891891891892" y="280.1880877742947" width="12" height="16.80250783699057" fill="#fb7185"/></g><g opacity="0.34"><line x1="1003.5135135135135" y1="271.7868338557994" x2="1003.5135135135135" y2="431.41065830721004" stroke="#fb7185" stroke-width="2"/><rect x="997.5135135135135" y="296.99059561128524" width="12" height="109.21630094043888" fill="#fb7185"/></g><g opacity="0.34"><line x1="1031.1351351351352" y1="414.60815047021947" x2="1031.1351351351352" y2="498.6206896551724" stroke="#fb7185" stroke-width="2"/><rect x="1025.1351351351352" y="423.00940438871476" width="12" height="33.60501567398114" fill="#fb7185"/></g><g opacity="0.34"><line x1="1058.7567567567567" y1="448.2131661442006" x2="1058.7567567567567" y2="498.6206896551724" stroke="#fb7185" stroke-width="2"/><rect x="1052.7567567567567" y="448.2131661442006" width="12" height="33.60501567398114" fill="#fb7185"/></g><g opacity="0.34"><line x1="1086.3783783783783" y1="473.41692789968647" x2="1086.3783783783783" y2="549.0282131661442" stroke="#fb7185" stroke-width="2"/><rect x="1080.3783783783783" y="481.81818181818176" width="12" height="58.80877742946711" fill="#fb7185"/></g><g opacity="0.34"><line x1="1114" y1="507.02194357366767" x2="1114" y2="557.4294670846396" stroke="#34d399" stroke-width="2"/><rect x="1108" y="540.6269592476489" width="12" height="2" fill="#34d399"/></g>
  <path d="M92.00,360.37 L119.62,366.37 L147.24,365.82 L174.86,369.66 L202.49,371.44 L230.11,370.85 L257.73,370.29 L285.35,370.21 L312.97,370.49 L340.59,370.82 L368.22,370.57 L395.84,370.24 L423.46,369.29 L451.08,352.63 L478.70,353.12 L506.32,353.14 L533.95,352.98 L561.57,369.12 L589.19,367.84 L616.81,355.34 L644.43,303.32 L672.05,277.49 L699.68,276.36 L727.30,275.00 L754.92,194.26 L782.54,185.86 L810.16,177.96 L837.78,114.51 L865.41,114.73 L893.03,116.01 L920.65,115.42 L948.27,111.85 L975.89,114.89 L1003.51,147.07 L1031.14,144.04 L1058.76,142.72 L1086.38,144.18 L1114.00,142.99" fill="none" stroke="#10b981" stroke-width="4" stroke-linejoin="round" stroke-linecap="round"/><path d="M92.00,361.63 L119.62,365.37 L147.24,371.62 L174.86,361.86 L202.49,366.84 L230.11,360.36 L257.73,352.60 L285.35,355.86 L312.97,350.24 L340.59,360.65 L368.22,359.88 L395.84,355.52 L423.46,349.02 L451.08,353.84 L478.70,351.17 L506.32,356.30 L533.95,352.56 L561.57,347.95 L589.19,328.90 L616.81,327.59 L644.43,313.42 L672.05,312.11 L699.68,312.65 L727.30,315.99 L754.92,312.23 L782.54,311.03 L810.16,316.59 L837.78,319.54 L865.41,322.67 L893.03,321.34 L920.65,321.34 L948.27,320.50 L975.89,319.01 L1003.51,315.66 L1031.14,313.35 L1058.76,313.69 L1086.38,315.44 L1114.00,313.44" fill="none" stroke="#8b5cf6" stroke-width="4" stroke-linejoin="round" stroke-linecap="round"/><path d="M92.00,360.06 L119.62,360.06 L147.24,360.06 L202.49,360.09 L230.11,360.03 L589.19,360.23 L616.81,360.14 L644.43,322.71 L672.05,322.88 L699.68,322.82 L727.30,289.91 L754.92,269.59 L810.16,266.65 L837.78,226.30 L865.41,226.33 L893.03,226.33 L920.65,226.33 L948.27,226.39 L1003.51,269.45 L1031.14,274.37" fill="none" stroke="#ec4899" stroke-width="4" stroke-linejoin="round" stroke-linecap="round"/><path d="M92.00,359.31 L119.62,354.19 L147.24,351.83 L174.86,352.43 L202.49,353.29 L230.11,353.35 L257.73,353.60 L285.35,353.21 L312.97,353.25 L340.59,353.41 L368.22,353.45 L395.84,350.76 L423.46,359.10 L451.08,358.28 L478.70,358.95 L506.32,358.92 L533.95,357.84 L561.57,359.21 L589.19,353.18 L616.81,347.48 L644.43,343.56 L672.05,341.66 L699.68,354.40 L727.30,357.43 L754.92,357.79 L782.54,359.53 L810.16,355.58 L837.78,356.30 L865.41,356.78 L893.03,354.10 L920.65,355.17 L948.27,355.66 L975.89,354.85 L1003.51,356.96 L1031.14,356.32 L1058.76,354.32 L1086.38,354.41 L1114.00,353.54" fill="none" stroke="#06b6d4" stroke-width="4" stroke-linejoin="round" stroke-linecap="round"/><path d="M92.00,359.85 L119.62,361.78 L147.24,361.05 L174.86,360.99 L202.49,361.15 L230.11,360.70 L257.73,361.58 L285.35,361.64 L312.97,361.56 L340.59,361.58 L368.22,361.15 L395.84,360.88 L423.46,361.77 L451.08,361.81 L478.70,362.13 L506.32,361.81 L533.95,361.81 L561.57,360.44 L589.19,360.84 L616.81,347.06 L644.43,353.78 L672.05,343.85 L699.68,340.45 L727.30,352.41 L754.92,350.72 L782.54,348.43 L810.16,345.62 L837.78,353.13 L865.41,346.99 L893.03,350.21 L920.65,356.61 L948.27,360.82 L975.89,364.46 L1003.51,365.59 L1031.14,362.51 L1058.76,361.22 L1086.38,359.29 L1114.00,360.67" fill="none" stroke="#f59e0b" stroke-width="4" stroke-linejoin="round" stroke-linecap="round"/>
  <text x="92" y="662" text-anchor="middle" fill="#94a3b8" font-size="16">2026-08-04</text><text x="589.1891891891892" y="662" text-anchor="middle" fill="#94a3b8" font-size="16">2026-09-01</text><text x="1114" y="662" text-anchor="middle" fill="#94a3b8" font-size="16">2026-09-28</text>
  <text x="1128" y="633" fill="#94a3b8" font-size="16">92</text><text x="1128" y="365" fill="#94a3b8" font-size="16">124</text><text x="1128" y="97" fill="#94a3b8" font-size="16">155</text>
  <text x="32" y="74" fill="#94a3b8" font-size="15">Net lots</text>
  <text x="1126" y="74" fill="#94a3b8" font-size="15">Price</text>
  <g><circle cx="92" cy="686" r="7" fill="#10b981"/><text x="106" y="692" fill="#e2e8f0" font-size="18" font-weight="700">LG</text></g><g><circle cx="282" cy="686" r="7" fill="#8b5cf6"/><text x="296" y="692" fill="#e2e8f0" font-size="18" font-weight="700">GR</text></g><g><circle cx="472" cy="686" r="7" fill="#ec4899"/><text x="486" y="692" fill="#e2e8f0" font-size="18" font-weight="700">RF</text></g><g><circle cx="662" cy="686" r="7" fill="#06b6d4"/><text x="676" y="692" fill="#e2e8f0" font-size="18" font-weight="700">KK</text></g><g><circle cx="852" cy="686" r="7" fill="#f59e0b"/><text x="866" y="692" fill="#e2e8f0" font-size="18" font-weight="700">BQ</text></g>
  
</svg>