<?xml version="1.0" encoding="UTF-8"?>
<svg xmlns="http://www.w3.org/2000/svg" width="1200" height="720" viewBox="0 0 1200 720">
  <rect width="100%" height="100%" fill="#0b1120"/>
  <text x="92" y="42" fill="#f8fafc" font-size="27" font-weight="800">JECX — cumulative broker net lots</text>
  <text x="92" y="70" fill="#94a3b8" font-size="17">2026-07-20 → 2026-10-02 · buy moves up, sell moves down · zero anchored</text>
  <line x1="92" y1="608.1481481481482" x2="1114" y2="608.1481481481482" stroke="#253044" stroke-width="1" /><text x="78" y="613.1481481481482" text-anchor="end" fill="#94a3b8" font-size="16">−1.7M</text><line x1="92" y1="484.0740740740741" x2="1114" y2="484.0740740740741" stroke="#253044" stroke-width="1" /><text x="78" y="489.0740740740741" text-anchor="end" fill="#94a3b8" font-size="16">−853.0K</text><line x1="92" y1="360" x2="1114" y2="360" stroke="#64748b" stroke-width="2" stroke-dasharray="8 6"/><text x="78" y="365" text-anchor="end" fill="#94a3b8" font-size="16">0</text><line x1="92" y1="235.92592592592592" x2="1114" y2="235.92592592592592" stroke="#253044" stroke-width="1" /><text x="78" y="240.92592592592592" text-anchor="end" fill="#94a3b8" font-size="16">853.0K</text><line x1="92" y1="111.85185185185188" x2="1114" y2="111.85185185185188" stroke="#253044" stroke-width="1" /><text x="78" y="116.85185185185188" text-anchor="end" fill="#94a3b8" font-size="16">1.7M</text>
  <g opacity="0.34"><line x1="92" y1="485.70993914807303" x2="92" y2="519.6855983772818" stroke="#34d399" stroke-width="2"/><rect x="86.69716981132075" y="495.90263691683566" width="10.605660377358491" height="16.987829614604436" fill="#34d399"/></g><g opacity="0.34"><line x1="111.65384615384616" y1="482.3123732251521" x2="111.65384615384616" y2="512.8904665314401" stroke="#fb7185" stroke-width="2"/><rect x="106.35101596516691" y="492.5050709939148" width="10.605660377358491" height="3.397565922920876" fill="#fb7185"/></g><g opacity="0.34"><line x1="131.30769230769232" y1="478.9148073022312" x2="131.30769230769232" y2="506.09533468559835" stroke="#fb7185" stroke-width="2"/><rect x="126.00486211901307" y="495.90263691683566" width="10.605660377358491" height="6.795131845841752" fill="#fb7185"/></g><g opacity="0.34"><line x1="150.96153846153845" y1="461.92697768762673" x2="150.96153846153845" y2="499.3002028397566" stroke="#34d399" stroke-width="2"/><rect x="145.6587082728592" y="489.10750507099385" width="10.605660377358491" height="3.3975659229209327" fill="#34d399"/></g><g opacity="0.34"><line x1="170.6153846153846" y1="475.5172413793103" x2="170.6153846153846" y2="499.3002028397566" stroke="#fb7185" stroke-width="2"/><rect x="165.31255442670536" y="482.3123732251521" width="10.605660377358491" height="3.3975659229209327" fill="#fb7185"/></g><g opacity="0.34"><line x1="190.26923076923077" y1="400.7707910750507" x2="190.26923076923077" y2="492.5050709939148" stroke="#34d399" stroke-width="2"/><rect x="184.96640058055152" y="434.7464503042596" width="10.605660377358491" height="54.36105476673424" fill="#34d399"/></g><g opacity="0.34"><line x1="209.92307692307693" y1="410.96348884381337" x2="209.92307692307693" y2="519.6855983772818" stroke="#fb7185" stroke-width="2"/><rect x="204.62024673439768" y="427.95131845841786" width="10.605660377358491" height="84.93914807302224" fill="#fb7185"/></g><g opacity="0.34"><line x1="229.57692307692307" y1="492.5050709939148" x2="229.57692307692307" y2="591.0344827586207" stroke="#fb7185" stroke-width="2"/><rect x="224.2740928882438" y="512.8904665314401" width="10.605660377358491" height="10.192697768762741" fill="#fb7185"/></g><g opacity="0.34"><line x1="249.23076923076923" y1="502.6977687626774" x2="249.23076923076923" y2="543.4685598377282" stroke="#fb7185" stroke-width="2"/><rect x="243.92793904208997" y="509.4929006085193" width="10.605660377358491" height="30.57809330628794" fill="#fb7185"/></g><g opacity="0.34"><line x1="268.88461538461536" y1="506.09533468559835" x2="268.88461538461536" y2="546.8661257606491" stroke="#34d399" stroke-width="2"/><rect x="263.5817851959361" y="509.4929006085193" width="10.605660377358491" height="30.57809330628794" fill="#34d399"/></g><g opacity="0.34"><line x1="288.53846153846155" y1="458.5294117647059" x2="288.53846153846155" y2="533.2758620689655" stroke="#34d399" stroke-width="2"/><rect x="283.2356313497823" y="461.92697768762673" width="10.605660377358491" height="44.168356997971614" fill="#34d399"/></g><g opacity="0.34"><line x1="308.1923076923077" y1="431.34888438133873" x2="308.1923076923077" y2="502.6977687626774" stroke="#fb7185" stroke-width="2"/><rect x="302.8894775036284" y="451.73427991886405" width="10.605660377358491" height="47.56592292089255" fill="#fb7185"/></g><g opacity="0.34"><line x1="327.84615384615387" y1="485.70993914807303" x2="327.84615384615387" y2="519.6855983772818" stroke="#fb7185" stroke-width="2"/><rect x="322.5433236574746" y="499.3002028397566" width="10.605660377358491" height="16.98782961460438" fill="#fb7185"/></g><g opacity="0.34"><line x1="347.5" y1="516.288032454361" x2="347.5" y2="543.4685598377282" stroke="#fb7185" stroke-width="2"/><rect x="342.19716981132075" y="516.288032454361" width="10.605660377358491" height="23.782961460446245" fill="#fb7185"/></g><g opacity="0.34"><line x1="367.15384615384613" y1="529.8782961460446" x2="367.15384615384613" y2="553.6612576064908" stroke="#fb7185" stroke-width="2"/><rect x="361.8510159651669" y="540.0709939148072" width="10.605660377358491" height="3.3975659229209896" fill="#fb7185"/></g><g opacity="0.34"><line x1="386.80769230769226" y1="536.6734279918865" x2="386.80769230769226" y2="567.2515212981743" stroke="#fb7185" stroke-width="2"/><rect x="381.504862119013" y="543.4685598377282" width="10.605660377358491" height="23.78296146044613" fill="#fb7185"/></g><g opacity="0.34"><line x1="406.46153846153845" y1="492.5050709939148" x2="406.46153846153845" y2="584.2393509127788" stroke="#34d399" stroke-width="2"/><rect x="401.1587082728592" y="509.4929006085193" width="10.605660377358491" height="57.75862068965506" fill="#34d399"/></g><g opacity="0.34"><line x1="426.11538461538464" y1="448.33671399594317" x2="426.11538461538464" y2="543.4685598377282" stroke="#34d399" stroke-width="2"/><rect x="420.8125544267054" y="472.1196754563895" width="10.605660377358491" height="37.373225152129805" fill="#34d399"/></g><g opacity="0.34"><line x1="445.7692307692308" y1="455.131845841785" x2="445.7692307692308" y2="523.0831643002028" stroke="#fb7185" stroke-width="2"/><rect x="440.4664005805515" y="472.1196754563895" width="10.605660377358491" height="33.97565922920887" fill="#fb7185"/></g><g opacity="0.34"><line x1="465.4230769230769" y1="485.70993914807303" x2="465.4230769230769" y2="523.0831643002028" stroke="#34d399" stroke-width="2"/><rect x="460.12024673439765" y="489.10750507099385" width="10.605660377358491" height="16.987829614604493" fill="#34d399"/></g><g opacity="0.34"><line x1="485.0769230769231" y1="485.70993914807303" x2="485.0769230769231" y2="523.0831643002028" stroke="#fb7185" stroke-width="2"/><rect x="479.77409288824384" y="489.10750507099385" width="10.605660377358491" height="33.975659229208986" fill="#fb7185"/></g><g opacity="0.34"><line x1="504.7307692307692" y1="499.3002028397566" x2="504.7307692307692" y2="543.4685598377282" stroke="#fb7185" stroke-width="2"/><rect x="499.42793904209" y="499.3002028397566" width="10.605660377358491" height="10.192697768762685" fill="#fb7185"/></g><g opacity="0.34"><line x1="524.3846153846154" y1="431.34888438133873" x2="524.3846153846154" y2="519.6855983772818" stroke="#34d399" stroke-width="2"/><rect x="519.0817851959362" y="444.9391480730223" width="10.605660377358491" height="64.55375253549698" fill="#34d399"/></g><g opacity="0.34"><line x1="544.0384615384615" y1="444.9391480730223" x2="544.0384615384615" y2="489.10750507099385" stroke="#fb7185" stroke-width="2"/><rect x="538.7356313497824" y="444.9391480730223" width="10.605660377358491" height="13.590263691683617" fill="#fb7185"/></g><g opacity="0.34"><line x1="563.6923076923077" y1="417.7586206896552" x2="563.6923076923077" y2="472.1196754563895" stroke="#fb7185" stroke-width="2"/><rect x="558.3894775036285" y="451.73427991886405" width="10.605660377358491" height="3.3975659229209327" fill="#fb7185"/></g><g opacity="0.34"><line x1="583.3461538461538" y1="424.5537525354969" x2="583.3461538461538" y2="502.6977687626774" stroke="#fb7185" stroke-width="2"/><rect x="578.0433236574746" y="455.131845841785" width="10.605660377358491" height="23.782961460446245" fill="#fb7185"/></g><g opacity="0.34"><line x1="603" y1="438.1440162271805" x2="603" y2="495.90263691683566" stroke="#34d399" stroke-width="2"/><rect x="597.6971698113208" y="451.73427991886405" width="10.605660377358491" height="30.578093306288054" fill="#34d399"/></g><g opacity="0.34"><line x1="622.6538461538462" y1="427.95131845841786" x2="622.6538461538462" y2="458.5294117647059" stroke="#34d399" stroke-width="2"/><rect x="617.351015965167" y="438.1440162271805" width="10.605660377358491" height="2" fill="#34d399"/></g><g opacity="0.34"><line x1="642.3076923076923" y1="373.59026369168356" x2="642.3076923076923" y2="444.9391480730223" stroke="#34d399" stroke-width="2"/><rect x="637.0048621190131" y="421.15618661257605" width="10.605660377358491" height="20.38539553752537" fill="#34d399"/></g><g opacity="0.34"><line x1="661.9615384615385" y1="383.78296146044624" x2="661.9615384615385" y2="414.3610547667343" stroke="#34d399" stroke-width="2"/><rect x="656.6587082728593" y="390.57809330628805" width="10.605660377358491" height="16.98782961460438" fill="#34d399"/></g><g opacity="0.34"><line x1="681.6153846153845" y1="288.65111561866127" x2="681.6153846153845" y2="397.3732251521298" stroke="#34d399" stroke-width="2"/><rect x="676.3125544267053" y="332.8194726166329" width="10.605660377358491" height="47.56592292089243" fill="#34d399"/></g><g opacity="0.34"><line x1="701.2692307692307" y1="128.96551724137936" x2="701.2692307692307" y2="400.7707910750507" stroke="#fb7185" stroke-width="2"/><rect x="695.9664005805515" y="319.22920892494926" width="10.605660377358491" height="13.590263691683617" fill="#fb7185"/></g><g opacity="0.34"><line x1="720.9230769230769" y1="322.6267748478702" x2="720.9230769230769" y2="417.7586206896552" stroke="#fb7185" stroke-width="2"/><rect x="715.6202467343977" y="336.21703853955376" width="10.605660377358491" height="50.963488843813366" fill="#fb7185"/></g><g opacity="0.34"><line x1="740.5769230769231" y1="370.1926977687627" x2="740.5769230769231" y2="431.34888438133873" stroke="#fb7185" stroke-width="2"/><rect x="735.2740928882439" y="380.3853955375253" width="10.605660377358491" height="40.77079107505074" fill="#fb7185"/></g><g opacity="0.34"><line x1="760.2307692307693" y1="400.7707910750507" x2="760.2307692307693" y2="427.95131845841786" stroke="#34d399" stroke-width="2"/><rect x="754.9279390420901" y="414.3610547667343" width="10.605660377358491" height="6.795131845841752" fill="#34d399"/></g><g opacity="0.34"><line x1="779.8846153846155" y1="407.56592292089243" x2="779.8846153846155" y2="492.5050709939148" stroke="#fb7185" stroke-width="2"/><rect x="774.5817851959363" y="407.56592292089243" width="10.605660377358491" height="40.77079107505074" fill="#fb7185"/></g><g opacity="0.34"><line x1="799.5384615384615" y1="451.73427991886405" x2="799.5384615384615" y2="499.3002028397566" stroke="#fb7185" stroke-width="2"/><rect x="794.2356313497824" y="472.1196754563895" width="10.605660377358491" height="16.98782961460438" fill="#fb7185"/></g><g opacity="0.34"><line x1="819.1923076923077" y1="475.5172413793103" x2="819.1923076923077" y2="523.0831643002028" stroke="#34d399" stroke-width="2"/><rect x="813.8894775036285" y="495.90263691683566" width="10.605660377358491" height="3.3975659229209327" fill="#34d399"/></g><g opacity="0.34"><line x1="838.8461538461538" y1="485.70993914807303" x2="838.8461538461538" y2="550.26369168357" stroke="#fb7185" stroke-width="2"/><rect x="833.5433236574746" y="492.5050709939148" width="10.605660377358491" height="30.578093306288054" fill="#fb7185"/></g><g opacity="0.34"><line x1="858.5" y1="506.09533468559835" x2="858.5" y2="540.0709939148072" stroke="#34d399" stroke-width="2"/><rect x="853.1971698113208" y="509.4929006085193" width="10.605660377358491" height="13.59026369168356" fill="#34d399"/></g><g opacity="0.34"><line x1="878.1538461538462" y1="485.70993914807303" x2="878.1538461538462" y2="519.6855983772818" stroke="#34d399" stroke-width="2"/><rect x="872.851015965167" y="489.10750507099385" width="10.605660377358491" height="20.385395537525426" fill="#34d399"/></g><g opacity="0.34"><line x1="897.8076923076923" y1="458.5294117647059" x2="897.8076923076923" y2="495.90263691683566" stroke="#34d399" stroke-width="2"/><rect x="892.5048621190131" y="468.72210953346854" width="10.605660377358491" height="20.385395537525312" fill="#34d399"/></g><g opacity="0.34"><line x1="917.4615384615385" y1="451.73427991886405" x2="917.4615384615385" y2="509.4929006085193" stroke="#34d399" stroke-width="2"/><rect x="912.1587082728593" y="455.131845841785" width="10.605660377358491" height="13.59026369168356" fill="#34d399"/></g><g opacity="0.34"><line x1="937.1153846153845" y1="407.56592292089243" x2="937.1153846153845" y2="478.9148073022312" stroke="#34d399" stroke-width="2"/><rect x="931.8125544267053" y="421.15618661257605" width="10.605660377358491" height="33.97565922920893" fill="#34d399"/></g><g opacity="0.34"><line x1="956.7692307692307" y1="376.9878296146045" x2="956.7692307692307" y2="475.5172413793103" stroke="#34d399" stroke-width="2"/><rect x="951.4664005805515" y="387.1805273833671" width="10.605660377358491" height="20.385395537525312" fill="#34d399"/></g><g opacity="0.34"><line x1="976.4230769230769" y1="373.59026369168356" x2="976.4230769230769" y2="431.34888438133873" stroke="#fb7185" stroke-width="2"/><rect x="971.1202467343977" y="380.3853955375253" width="10.605660377358491" height="50.96348884381342" fill="#fb7185"/></g><g opacity="0.34"><line x1="996.0769230769231" y1="390.57809330628805" x2="996.0769230769231" y2="455.131845841785" stroke="#34d399" stroke-width="2"/><rect x="990.7740928882439" y="421.15618661257605" width="10.605660377358491" height="10.192697768762685" fill="#34d399"/></g><g opacity="0.34"><line x1="1015.7307692307693" y1="404.1683569979716" x2="1015.7307692307693" y2="448.33671399594317" stroke="#fb7185" stroke-width="2"/><rect x="1010.4279390420901" y="407.56592292089243" width="10.605660377358491" height="40.77079107505074" fill="#fb7185"/></g><g opacity="0.34"><line x1="1035.3846153846155" y1="414.3610547667343" x2="1035.3846153846155" y2="465.32454361054766" stroke="#fb7185" stroke-width="2"/><rect x="1030.0817851959362" y="441.5415821501014" width="10.605660377358491" height="6.795131845841752" fill="#fb7185"/></g><g opacity="0.34"><line x1="1055.0384615384614" y1="448.33671399594317" x2="1055.0384615384614" y2="478.9148073022312" stroke="#fb7185" stroke-width="2"/><rect x="1049.7356313497821" y="451.73427991886405" width="10.605660377358491" height="10.192697768762685" fill="#fb7185"/></g><g opacity="0.34"><line x1="1074.6923076923076" y1="465.32454361054766" x2="1074.6923076923076" y2="509.4929006085193" stroke="#fb7185" stroke-width="2"/><rect x="1069.3894775036283" y="465.32454361054766" width="10.605660377358491" height="44.168356997971614" fill="#fb7185"/></g><g opacity="0.34"><line x1="1094.3461538461538" y1="499.3002028397566" x2="1094.3461538461538" y2="523.0831643002028" stroke="#fb7185" stroke-width="2"/><rect x="1089.0433236574745" y="502.6977687626774" width="10.605660377358491" height="13.59026369168356" fill="#fb7185"/></g><g opacity="0.34"><line x1="1114" y1="502.6977687626774" x2="1114" y2="529.8782961460446" stroke="#34d399" stroke-width="2"/><rect x="1108.6971698113207" y="519.6855983772818" width="10.605660377358491" height="2" fill="#34d399"/></g>
  <path d="M92.00,357.01 L111.65,353.65 L131.31,351.96 L150.96,350.08 L170.62,350.08 L190.27,347.34 L209.92,347.23 L229.58,343.13 L249.23,343.13 L268.88,299.25 L288.54,298.63 L308.19,298.79 L327.85,298.81 L347.50,298.81 L367.15,298.81 L386.81,298.78 L406.46,272.55 L426.12,256.30 L445.77,255.98 L465.42,255.12 L485.08,255.12 L504.73,254.75 L524.38,245.21 L544.04,245.21 L563.69,234.04 L583.35,234.20 L603.00,215.63 L622.65,213.93 L642.31,198.76 L661.96,181.24 L681.62,175.32 L701.27,166.62 L720.92,166.76 L740.58,164.44 L760.23,164.45 L779.88,164.57 L799.54,164.57 L819.19,163.99 L838.85,163.51 L858.50,162.51 L878.15,161.88 L897.81,160.97 L917.46,159.27 L937.12,135.02 L956.77,113.07 L976.42,112.90 L996.08,112.70 L1015.73,112.67 L1035.38,112.61 L1055.04,112.54 L1074.69,112.21 L1094.35,112.05 L1114.00,111.85" fill="none" stroke="#10b981" stroke-width="4" stroke-linejoin="round" stroke-linecap="round"/><path d="M92.00,359.70 L111.65,360.41 L131.31,360.69 L150.96,359.00 L170.62,358.54 L190.27,356.84 L209.92,359.23 L229.58,361.06 L249.23,361.52 L268.88,361.99 L288.54,361.74 L308.19,361.76 L327.85,362.16 L347.50,362.27 L367.15,362.28 L386.81,362.25 L406.46,361.62 L426.12,361.45 L445.77,361.53 L465.42,361.52 L485.08,361.85 L504.73,361.77 L524.38,359.10 L544.04,357.88 L563.69,357.11 L583.35,356.82 L603.00,356.48 L622.65,356.02 L642.31,352.62 L661.96,350.80 L681.62,348.81 L701.27,349.38 L720.92,350.45 L740.58,351.86 L760.23,352.24 L779.88,352.44 L799.54,352.40 L819.19,352.42 L838.85,352.90 L858.50,353.39 L878.15,353.70 L897.81,354.15 L917.46,354.96 L937.12,355.22 L956.77,356.40 L976.42,357.07 L996.08,357.39 L1015.73,357.60 L1035.38,357.71 L1055.04,357.73 L1074.69,357.81 L1094.35,357.95 L1114.00,358.17" fill="none" stroke="#8b5cf6" stroke-width="4" stroke-linejoin="round" stroke-linecap="round"/><path d="M229.58,360.00 L249.23,360.00 L268.88,359.98 L288.54,359.94 L327.85,359.96 L347.50,359.99 L367.15,360.00 L386.81,360.00 L406.46,359.96 L445.77,359.93 L465.42,359.94 L485.08,359.97 L544.04,359.96 L563.69,359.92 L583.35,359.92 L603.00,359.98 L622.65,359.96 L642.31,359.70 L661.96,359.79 L681.62,359.75 L701.27,359.82 L720.92,359.84 L740.58,359.95 L760.23,359.85 L779.88,359.74 L799.54,359.91 L819.19,359.74 L838.85,359.77 L858.50,359.83 L878.15,359.88 L917.46,359.85 L937.12,359.91 L956.77,359.96 L976.42,359.96 L996.08,359.94 L1015.73,359.96 L1035.38,359.88 L1055.04,359.85 L1094.35,359.85 L1114.00,359.92" fill="none" stroke="#ec4899" stroke-width="4" stroke-linejoin="round" stroke-linecap="round"/><path d="M92.00,360.02 L111.65,360.04 L131.31,360.08 L150.96,360.08 L170.62,360.17 L209.92,360.14 L229.58,360.16 L249.23,360.15 L268.88,360.05 L288.54,359.98 L308.19,360.11 L327.85,360.00 L347.50,360.09 L367.15,360.12 L386.81,360.10 L406.46,360.01 L426.12,359.90 L445.77,359.88 L465.42,359.74 L485.08,359.99 L504.73,360.11 L524.38,360.01 L544.04,360.01 L563.69,360.01 L583.35,359.53 L603.00,359.47 L622.65,359.35 L642.31,358.96 L661.96,358.94 L681.62,358.66 L701.27,358.50 L720.92,358.49 L740.58,360.33 L760.23,360.16 L779.88,360.07 L799.54,360.01 L819.19,360.05 L838.85,360.00 L858.50,360.12 L878.15,360.16 L897.81,360.18 L917.46,360.24 L937.12,360.24 L956.77,360.42 L976.42,360.50 L996.08,360.46 L1015.73,360.45 L1074.69,360.81 L1094.35,361.09 L1114.00,361.11" fill="none" stroke="#06b6d4" stroke-width="4" stroke-linejoin="round" stroke-linecap="round"/><path d="M92.00,360.00 L111.65,360.01 L131.31,359.91 L150.96,359.96 L170.62,359.96 L190.27,359.83 L209.92,359.75 L229.58,359.74 L249.23,359.72 L268.88,359.65 L288.54,359.66 L308.19,359.59 L327.85,359.77 L347.50,359.77 L386.81,359.77 L406.46,359.97 L426.12,360.15 L445.77,360.10 L465.42,360.10 L485.08,360.07 L504.73,360.11 L524.38,360.12 L544.04,360.10 L563.69,360.11 L583.35,360.09 L603.00,360.11 L622.65,360.11 L642.31,360.16 L661.96,359.69 L681.62,359.44 L701.27,359.46 L720.92,359.46 L740.58,360.19 L760.23,360.15 L779.88,360.13 L799.54,360.21 L819.19,360.21 L838.85,360.14 L858.50,360.14 L878.15,360.13 L897.81,360.13 L917.46,360.15 L937.12,360.21 L956.77,360.35 L976.42,360.34 L996.08,360.34 L1015.73,360.37 L1035.38,360.37 L1055.04,360.37 L1074.69,360.35 L1094.35,360.33 L1114.00,360.37" fill="none" stroke="#f59e0b" stroke-width="4" stroke-linejoin="round" stroke-linecap="round"/>
  <text x="92" y="662" text-anchor="middle" fill="#94a3b8" font-size="16">2026-07-20</text><text x="603" y="662" text-anchor="middle" fill="#94a3b8" font-size="16">2026-08-27</text><text x="1114" y="662" text-anchor="middle" fill="#94a3b8" font-size="16">2026-10-02</text>
  <text x="1128" y="633" fill="#94a3b8" font-size="16">1146</text><text x="1128" y="365" fill="#94a3b8" font-size="16">1540</text><text x="1128" y="97" fill="#94a3b8" font-size="16">1934</text>
  <text x="32" y="74" fill="#94a3b8" font-size="15">Net lots</text>
  <text x="1126" y="74" fill="#94a3b8" font-size="15">Price</text>
  <g><circle cx="92" cy="686" r="7" fill="#10b981"/><text x="106" y="692" fill="#e2e8f0" font-size="18" font-weight="700">LG</text></g><g><circle cx="282" cy="686" r="7" fill="#8b5cf6"/><text x="296" y="692" fill="#e2e8f0" font-size="18" font-weight="700">AK</text></g><g><circle cx="472" cy="686" r="7" fill="#ec4899"/><text x="486" y="692" fill="#e2e8f0" font-size="18" font-weight="700">BK</text></g><g><circle cx="662" cy="686" r="7" fill="#06b6d4"/><text x="676" y="692" fill="#e2e8f0" font-size="18" font-weight="700">ZP</text></g><g><circle cx="852" cy="686" r="7" fill="#f59e0b"/><text x="866" y="692" fill="#e2e8f0" font-size="18" font-weight="700">MG</text></g>
  
</svg>