<?xml version="1.0" encoding="UTF-8"?>
<svg xmlns="http://www.w3.org/2000/svg" width="1200" height="720" viewBox="0 0 1200 720">
  <rect width="100%" height="100%" fill="#0b1120"/>
  <text x="92" y="42" fill="#f8fafc" font-size="27" font-weight="800">PTRO — cumulative broker net lots</text>
  <text x="92" y="70" fill="#94a3b8" font-size="17">2026-07-01 → 2026-09-10 · buy moves up, sell moves down · zero anchored</text>
  <line x1="92" y1="608.1481481481482" x2="1114" y2="608.1481481481482" stroke="#253044" stroke-width="1" /><text x="78" y="613.1481481481482" text-anchor="end" fill="#94a3b8" font-size="16">−527.3K</text><line x1="92" y1="484.0740740740741" x2="1114" y2="484.0740740740741" stroke="#253044" stroke-width="1" /><text x="78" y="489.0740740740741" text-anchor="end" fill="#94a3b8" font-size="16">−263.6K</text><line x1="92" y1="360" x2="1114" y2="360" stroke="#64748b" stroke-width="2" stroke-dasharray="8 6"/><text x="78" y="365" text-anchor="end" fill="#94a3b8" font-size="16">0</text><line x1="92" y1="235.92592592592592" x2="1114" y2="235.92592592592592" stroke="#253044" stroke-width="1" /><text x="78" y="240.92592592592592" text-anchor="end" fill="#94a3b8" font-size="16">263.6K</text><line x1="92" y1="111.85185185185185" x2="1114" y2="111.85185185185185" stroke="#253044" stroke-width="1" /><text x="78" y="116.85185185185185" text-anchor="end" fill="#94a3b8" font-size="16">527.3K</text>
  <g opacity="0.34"><line x1="92" y1="522.9618226600985" x2="92" y2="591.0344827586207" stroke="#34d399" stroke-width="2"/><rect x="86.379" y="553.9039408866995" width="11.242" height="16.502463054187274" fill="#34d399"/></g><g opacity="0.34"><line x1="112.85714285714286" y1="508.5221674876847" x2="112.85714285714286" y2="560.0923645320197" stroke="#34d399" stroke-width="2"/><rect x="107.23614285714287" y="545.652709359606" width="11.242" height="8.251231527093523" fill="#34d399"/></g><g opacity="0.34"><line x1="133.71428571428572" y1="520.8990147783252" x2="133.71428571428572" y2="541.5270935960591" stroke="#fb7185" stroke-width="2"/><rect x="128.0932857142857" y="535.3386699507389" width="11.242" height="4.125615763546875" fill="#fb7185"/></g><g opacity="0.34"><line x1="154.57142857142856" y1="512.6477832512315" x2="154.57142857142856" y2="541.5270935960591" stroke="#34d399" stroke-width="2"/><rect x="148.95042857142855" y="520.8990147783252" width="11.242" height="10.314039408866961" fill="#34d399"/></g><g opacity="0.34"><line x1="175.42857142857142" y1="498.20812807881777" x2="175.42857142857142" y2="522.9618226600985" stroke="#34d399" stroke-width="2"/><rect x="169.8075714285714" y="508.5221674876847" width="11.242" height="6.188423645320256" fill="#34d399"/></g><g opacity="0.34"><line x1="196.28571428571428" y1="512.6477832512315" x2="196.28571428571428" y2="543.5899014778325" stroke="#fb7185" stroke-width="2"/><rect x="190.66471428571427" y="512.6477832512315" width="11.242" height="30.942118226600996" fill="#fb7185"/></g><g opacity="0.34"><line x1="217.14285714285714" y1="525.0246305418719" x2="217.14285714285714" y2="545.652709359606" stroke="#34d399" stroke-width="2"/><rect x="211.52185714285713" y="531.2130541871921" width="11.242" height="12.376847290640399" fill="#34d399"/></g><g opacity="0.34"><line x1="238" y1="520.8990147783252" x2="238" y2="539.4642857142858" stroke="#fb7185" stroke-width="2"/><rect x="232.379" y="527.0874384236454" width="11.242" height="10.314039408866961" fill="#fb7185"/></g><g opacity="0.34"><line x1="258.85714285714283" y1="518.8362068965517" x2="258.85714285714283" y2="539.4642857142858" stroke="#34d399" stroke-width="2"/><rect x="253.23614285714282" y="518.8362068965517" width="11.242" height="16.50246305418716" fill="#34d399"/></g><g opacity="0.34"><line x1="279.7142857142857" y1="496.1453201970444" x2="279.7142857142857" y2="525.0246305418719" stroke="#fb7185" stroke-width="2"/><rect x="274.09328571428574" y="514.710591133005" width="11.242" height="6.188423645320199" fill="#fb7185"/></g><g opacity="0.34"><line x1="300.57142857142856" y1="508.5221674876847" x2="300.57142857142856" y2="520.8990147783252" stroke="#fb7185" stroke-width="2"/><rect x="294.9504285714286" y="512.6477832512315" width="11.242" height="4.125615763546762" fill="#fb7185"/></g><g opacity="0.34"><line x1="321.42857142857144" y1="475.51724137931035" x2="321.42857142857144" y2="522.9618226600985" stroke="#34d399" stroke-width="2"/><rect x="315.80757142857146" y="494.08251231527095" width="11.242" height="16.50246305418716" fill="#34d399"/></g><g opacity="0.34"><line x1="342.2857142857143" y1="481.7056650246306" x2="342.2857142857143" y2="500.27093596059115" stroke="#fb7185" stroke-width="2"/><rect x="336.6647142857143" y="487.89408866995075" width="11.242" height="8.251231527093637" fill="#fb7185"/></g><g opacity="0.34"><line x1="363.14285714285717" y1="479.6428571428571" x2="363.14285714285717" y2="496.1453201970444" stroke="#34d399" stroke-width="2"/><rect x="357.5218571428572" y="485.83128078817737" width="11.242" height="8.25123152709358" fill="#34d399"/></g><g opacity="0.34"><line x1="384" y1="413.6330049261084" x2="384" y2="489.9568965517242" stroke="#34d399" stroke-width="2"/><rect x="378.379" y="413.6330049261084" width="11.242" height="68.07266009852219" fill="#34d399"/></g><g opacity="0.34"><line x1="404.8571428571429" y1="324.93226600985224" x2="404.8571428571429" y2="411.57019704433503" stroke="#34d399" stroke-width="2"/><rect x="399.2361428571429" y="368.2512315270936" width="11.242" height="39.19334975369458" fill="#34d399"/></g><g opacity="0.34"><line x1="425.71428571428567" y1="263.04802955665025" x2="425.71428571428567" y2="370.31403940886696" stroke="#34d399" stroke-width="2"/><rect x="420.0932857142857" y="322.8694581280788" width="11.242" height="45.381773399014776" fill="#34d399"/></g><g opacity="0.34"><line x1="446.57142857142856" y1="304.3041871921182" x2="446.57142857142856" y2="378.5652709359606" stroke="#fb7185" stroke-width="2"/><rect x="440.9504285714286" y="341.4347290640394" width="11.242" height="33.00492610837438" fill="#fb7185"/></g><g opacity="0.34"><line x1="467.42857142857144" y1="326.99507389162557" x2="467.42857142857144" y2="395.0677339901478" stroke="#34d399" stroke-width="2"/><rect x="461.80757142857146" y="364.1256157635468" width="11.242" height="10.314039408866961" fill="#34d399"/></g><g opacity="0.34"><line x1="488.2857142857143" y1="341.4347290640394" x2="488.2857142857143" y2="370.31403940886696" stroke="#fb7185" stroke-width="2"/><rect x="482.6647142857143" y="364.1256157635468" width="11.242" height="6.188423645320142" fill="#fb7185"/></g><g opacity="0.34"><line x1="509.14285714285717" y1="349.685960591133" x2="509.14285714285717" y2="423.9470443349754" stroke="#fb7185" stroke-width="2"/><rect x="503.5218571428572" y="370.31403940886696" width="11.242" height="16.502463054187217" fill="#fb7185"/></g><g opacity="0.34"><line x1="530" y1="362.0628078817734" x2="530" y2="390.942118226601" stroke="#34d399" stroke-width="2"/><rect x="524.379" y="382.6908866995074" width="11.242" height="2" fill="#34d399"/></g><g opacity="0.34"><line x1="550.8571428571429" y1="341.4347290640394" x2="550.8571428571429" y2="368.2512315270936" stroke="#34d399" stroke-width="2"/><rect x="545.2361428571429" y="364.1256157635468" width="11.242" height="2" fill="#34d399"/></g><g opacity="0.34"><line x1="571.7142857142858" y1="337.30911330049264" x2="571.7142857142858" y2="393.0049261083744" stroke="#fb7185" stroke-width="2"/><rect x="566.0932857142858" y="345.56034482758616" width="11.242" height="47.44458128078821" fill="#fb7185"/></g><g opacity="0.34"><line x1="592.5714285714286" y1="376.50246305418716" x2="592.5714285714286" y2="393.0049261083744" stroke="#34d399" stroke-width="2"/><rect x="586.9504285714286" y="376.50246305418716" width="11.242" height="4.125615763546875" fill="#34d399"/></g><g opacity="0.34"><line x1="613.4285714285714" y1="345.56034482758616" x2="613.4285714285714" y2="372.3768472906404" stroke="#34d399" stroke-width="2"/><rect x="607.8075714285715" y="355.8743842364532" width="11.242" height="10.314039408867018" fill="#34d399"/></g><g opacity="0.34"><line x1="634.2857142857143" y1="278.51908866995075" x2="634.2857142857143" y2="345.56034482758616" stroke="#34d399" stroke-width="2"/><rect x="628.6647142857144" y="278.51908866995075" width="11.242" height="64.97844827586209" fill="#34d399"/></g><g opacity="0.34"><line x1="655.1428571428571" y1="257.8910098522167" x2="655.1428571428571" y2="304.3041871921182" stroke="#34d399" stroke-width="2"/><rect x="649.5218571428571" y="278.51908866995075" width="11.242" height="2" fill="#34d399"/></g><g opacity="0.34"><line x1="676" y1="257.8910098522167" x2="676" y2="310.4926108374384" stroke="#fb7185" stroke-width="2"/><rect x="670.379" y="273.3620689655172" width="11.242" height="25.78509852216746" fill="#fb7185"/></g><g opacity="0.34"><line x1="696.8571428571429" y1="283.6761083743842" x2="696.8571428571429" y2="333.18349753694577" stroke="#fb7185" stroke-width="2"/><rect x="691.2361428571429" y="299.14716748768467" width="11.242" height="19.596674876847374" fill="#fb7185"/></g><g opacity="0.34"><line x1="717.7142857142858" y1="180.53571428571425" x2="717.7142857142858" y2="310.4926108374384" stroke="#34d399" stroke-width="2"/><rect x="712.0932857142858" y="201.16379310344826" width="11.242" height="105.20320197044339" fill="#34d399"/></g><g opacity="0.34"><line x1="738.5714285714286" y1="201.16379310344826" x2="738.5714285714286" y2="273.3620689655172" stroke="#fb7185" stroke-width="2"/><rect x="732.9504285714286" y="201.16379310344826" width="11.242" height="61.88423645320199" fill="#fb7185"/></g><g opacity="0.34"><line x1="759.4285714285713" y1="226.94889162561574" x2="759.4285714285713" y2="273.3620689655172" stroke="#34d399" stroke-width="2"/><rect x="753.8075714285714" y="252.73399014778323" width="11.242" height="10.314039408867018" fill="#34d399"/></g><g opacity="0.34"><line x1="780.2857142857142" y1="196.00677339901475" x2="780.2857142857142" y2="252.73399014778323" stroke="#fb7185" stroke-width="2"/><rect x="774.6647142857142" y="221.79187192118226" width="11.242" height="20.62807881773398" fill="#fb7185"/></g><g opacity="0.34"><line x1="801.1428571428571" y1="242.41995073891624" x2="801.1428571428571" y2="273.3620689655172" stroke="#fb7185" stroke-width="2"/><rect x="795.5218571428571" y="247.57697044334975" width="11.242" height="5.1570197044334805" fill="#fb7185"/></g><g opacity="0.34"><line x1="822" y1="232.10591133004925" x2="822" y2="252.73399014778323" stroke="#fb7185" stroke-width="2"/><rect x="816.379" y="242.41995073891624" width="11.242" height="10.31403940886699" fill="#fb7185"/></g><g opacity="0.34"><line x1="842.8571428571429" y1="232.10591133004925" x2="842.8571428571429" y2="263.04802955665025" stroke="#34d399" stroke-width="2"/><rect x="837.2361428571429" y="242.41995073891624" width="11.242" height="10.31403940886699" fill="#34d399"/></g><g opacity="0.34"><line x1="863.7142857142857" y1="232.10591133004925" x2="863.7142857142857" y2="278.51908866995075" stroke="#fb7185" stroke-width="2"/><rect x="858.0932857142857" y="232.10591133004925" width="11.242" height="46.413177339901495" fill="#fb7185"/></g><g opacity="0.34"><line x1="884.5714285714286" y1="273.3620689655172" x2="884.5714285714286" y2="333.18349753694577" stroke="#fb7185" stroke-width="2"/><rect x="878.9504285714286" y="278.51908866995075" width="11.242" height="54.66440886699502" fill="#fb7185"/></g><g opacity="0.34"><line x1="905.4285714285714" y1="278.51908866995075" x2="905.4285714285714" y2="345.56034482758616" stroke="#34d399" stroke-width="2"/><rect x="899.8075714285715" y="288.8331280788177" width="11.242" height="54.66440886699513" fill="#34d399"/></g><g opacity="0.34"><line x1="926.2857142857143" y1="257.8910098522167" x2="926.2857142857143" y2="312.55541871921184" stroke="#fb7185" stroke-width="2"/><rect x="920.6647142857144" y="278.51908866995075" width="11.242" height="27.847906403940897" fill="#fb7185"/></g><g opacity="0.34"><line x1="947.1428571428572" y1="278.51908866995075" x2="947.1428571428572" y2="306.36699507389164" stroke="#34d399" stroke-width="2"/><rect x="941.5218571428572" y="288.8331280788177" width="11.242" height="15.471059113300498" fill="#34d399"/></g><g opacity="0.34"><line x1="968" y1="211.47783251231525" x2="968" y2="288.8331280788177" stroke="#34d399" stroke-width="2"/><rect x="962.379" y="216.63485221674875" width="11.242" height="56.727216748768456" fill="#34d399"/></g><g opacity="0.34"><line x1="988.8571428571428" y1="201.16379310344826" x2="988.8571428571428" y2="268.20504926108373" stroke="#fb7185" stroke-width="2"/><rect x="983.2361428571428" y="201.16379310344826" width="11.242" height="30.942118226600996" fill="#fb7185"/></g><g opacity="0.34"><line x1="1009.7142857142857" y1="206.32081280788174" x2="1009.7142857142857" y2="257.8910098522167" stroke="#fb7185" stroke-width="2"/><rect x="1004.0932857142857" y="226.94889162561574" width="11.242" height="30.942118226600968" fill="#fb7185"/></g><g opacity="0.34"><line x1="1030.5714285714284" y1="206.32081280788174" x2="1030.5714285714284" y2="247.57697044334975" stroke="#34d399" stroke-width="2"/><rect x="1024.9504285714283" y="226.94889162561574" width="11.242" height="20.628078817734007" fill="#34d399"/></g><g opacity="0.34"><line x1="1051.4285714285716" y1="165.06465517241378" x2="1051.4285714285716" y2="242.41995073891624" stroke="#34d399" stroke-width="2"/><rect x="1045.8075714285715" y="211.47783251231525" width="11.242" height="10.314039408867018" fill="#34d399"/></g><g opacity="0.34"><line x1="1072.2857142857142" y1="175.37869458128077" x2="1072.2857142857142" y2="221.79187192118226" stroke="#fb7185" stroke-width="2"/><rect x="1066.6647142857141" y="211.47783251231525" width="11.242" height="5.157019704433509" fill="#fb7185"/></g><g opacity="0.34"><line x1="1093.142857142857" y1="190.84975369458127" x2="1093.142857142857" y2="221.79187192118226" stroke="#fb7185" stroke-width="2"/><rect x="1087.521857142857" y="201.16379310344826" width="11.242" height="10.31403940886699" fill="#fb7185"/></g><g opacity="0.34"><line x1="1114" y1="128.96551724137927" x2="1114" y2="221.79187192118226" stroke="#fb7185" stroke-width="2"/><rect x="1108.379" y="201.16379310344826" width="11.242" height="10.31403940886699" fill="#fb7185"/></g>
  <path d="M92.00,360.38 L112.86,360.30 L133.71,360.31 L154.57,360.46 L175.43,360.40 L196.29,360.82 L217.14,360.31 L238.00,360.29 L258.86,360.49 L279.71,360.33 L300.57,360.58 L321.43,360.49 L342.29,359.65 L363.14,359.31 L384.00,328.32 L404.86,303.12 L425.71,286.23 L446.57,282.81 L467.43,282.38 L488.29,276.81 L509.14,278.65 L530.00,278.76 L550.86,278.29 L571.71,278.72 L592.57,278.64 L613.43,258.67 L634.29,237.61 L655.14,234.75 L676.00,225.38 L696.86,218.55 L717.71,221.63 L738.57,216.82 L759.43,210.16 L780.29,201.71 L801.14,201.65 L822.00,201.72 L842.86,202.54 L863.71,210.40 L884.57,211.62 L905.43,205.52 L926.29,205.09 L947.14,205.07 L968.00,250.20 L988.86,247.52 L1009.71,292.70 L1030.57,293.69 L1051.43,290.71 L1072.29,290.35 L1093.14,291.19 L1114.00,298.80" fill="none" stroke="#10b981" stroke-width="4" stroke-linejoin="round" stroke-linecap="round"/><path d="M92.00,360.85 L112.86,353.80 L133.71,351.42 L154.57,350.61 L175.43,352.45 L196.29,350.69 L217.14,351.53 L238.00,351.62 L258.86,354.45 L279.71,354.51 L300.57,355.16 L321.43,355.58 L342.29,356.76 L363.14,357.98 L384.00,355.86 L404.86,330.32 L425.71,294.68 L446.57,293.91 L467.43,286.79 L488.29,284.00 L509.14,285.57 L530.00,287.03 L550.86,289.33 L571.71,290.03 L592.57,293.49 L613.43,290.08 L634.29,295.61 L655.14,292.92 L676.00,273.66 L696.86,260.92 L717.71,262.32 L738.57,260.85 L759.43,256.67 L780.29,253.69 L801.14,251.15 L822.00,250.85 L842.86,250.97 L863.71,250.05 L884.57,237.81 L905.43,235.51 L926.29,226.40 L947.14,224.10 L968.00,213.46 L988.86,198.56 L1009.71,182.23 L1030.57,168.52 L1051.43,161.71 L1072.29,149.41 L1093.14,141.64 L1114.00,111.85" fill="none" stroke="#8b5cf6" stroke-width="4" stroke-linejoin="round" stroke-linecap="round"/><path d="M92.00,360.14 L112.86,360.47 L133.71,360.51 L154.57,360.08 L175.43,359.47 L196.29,359.30 L217.14,358.52 L238.00,359.66 L258.86,359.39 L279.71,358.91 L300.57,359.30 L321.43,358.38 L342.29,358.91 L363.14,358.94 L384.00,355.49 L404.86,361.17 L425.71,341.98 L446.57,334.69 L467.43,326.17 L488.29,328.15 L509.14,325.95 L530.00,326.18 L550.86,323.04 L571.71,338.74 L592.57,337.26 L613.43,340.07 L634.29,328.86 L655.14,323.80 L676.00,327.59 L696.86,338.18 L717.71,324.17 L738.57,323.30 L759.43,316.21 L780.29,313.40 L801.14,312.87 L822.00,313.62 L842.86,317.97 L863.71,326.09 L884.57,320.22 L905.43,327.72 L926.29,335.82 L947.14,335.96 L968.00,316.46 L988.86,308.92 L1009.71,301.35 L1030.57,296.88 L1051.43,301.56 L1072.29,297.44 L1093.14,297.42 L1114.00,308.57" fill="none" stroke="#ec4899" stroke-width="4" stroke-linejoin="round" stroke-linecap="round"/><path d="M92.00,359.55 L425.71,362.88 L467.43,365.46 L634.29,345.70 L655.14,343.39 L696.86,329.24 L759.43,329.97 L801.14,328.79 L863.71,331.14 L884.57,333.18 L926.29,330.83 L968.00,326.38 L1051.43,327.26 L1072.29,327.07 L1114.00,312.51" fill="none" stroke="#06b6d4" stroke-width="4" stroke-linejoin="round" stroke-linecap="round"/><path d="M92.00,346.81 L112.86,356.17 L133.71,362.49 L154.57,355.40 L175.43,353.24 L196.29,355.69 L217.14,352.48 L238.00,357.88 L258.86,349.86 L279.71,356.97 L300.57,357.33 L321.43,341.03 L342.29,348.93 L363.14,345.61 L384.00,327.63 L404.86,344.99 L425.71,332.78 L446.57,344.57 L467.43,354.05 L488.29,353.44 L509.14,355.19 L530.00,353.84 L550.86,344.54 L571.71,347.51 L592.57,344.49 L613.43,346.89 L634.29,315.17 L655.14,314.13 L676.00,321.84 L696.86,325.36 L717.71,276.30 L738.57,324.10 L759.43,326.36 L780.29,324.32 L801.14,325.08 L822.00,326.03 L842.86,320.19 L863.71,326.09 L884.57,334.34 L905.43,332.12 L926.29,333.94 L947.14,337.65 L968.00,311.71 L988.86,322.53 L1009.71,327.73 L1030.57,309.33 L1051.43,320.71 L1072.29,319.05 L1093.14,321.03 L1114.00,316.58" fill="none" stroke="#f59e0b" stroke-width="4" stroke-linejoin="round" stroke-linecap="round"/>
  <text x="92" y="662" text-anchor="middle" fill="#94a3b8" font-size="16">2026-07-01</text><text x="592.5714285714286" y="662" text-anchor="middle" fill="#94a3b8" font-size="16">2026-08-04</text><text x="1114" y="662" text-anchor="middle" fill="#94a3b8" font-size="16">2026-09-10</text>
  <text x="1128" y="633" fill="#94a3b8" font-size="16">3431</text><text x="1128" y="365" fill="#94a3b8" font-size="16">4730</text><text x="1128" y="97" fill="#94a3b8" font-size="16">6029</text>
  <text x="32" y="74" fill="#94a3b8" font-size="15">Net lots</text>
  <text x="1126" y="74" fill="#94a3b8" font-size="15">Price</text>
  <g><circle cx="92" cy="686" r="7" fill="#10b981"/><text x="106" y="692" fill="#e2e8f0" font-size="18" font-weight="700">AI</text></g><g><circle cx="282" cy="686" r="7" fill="#8b5cf6"/><text x="296" y="692" fill="#e2e8f0" font-size="18" font-weight="700">HP</text></g><g><circle cx="472" cy="686" r="7" fill="#ec4899"/><text x="486" y="692" fill="#e2e8f0" font-size="18" font-weight="700">AZ</text></g><g><circle cx="662" cy="686" r="7" fill="#06b6d4"/><text x="676" y="692" fill="#e2e8f0" font-size="18" font-weight="700">BB</text></g><g><circle cx="852" cy="686" r="7" fill="#f59e0b"/><text x="866" y="692" fill="#e2e8f0" font-size="18" font-weight="700">AK</text></g>
  
</svg>